<svg xmlns="http://www.w3.org/2000/svg" xmlns:xlink="http://www.w3.org/1999/xlink" preserveAspectRatio="xMidYMid" width="220.906" height="69.625" viewBox="0 0 220.906 69.625">
  <defs>
    <style>
      .cls-1 {
        fill: #815ca6;
        fill-rule: evenodd;
      }
    </style>
  </defs>
  <path d="M204.414,62.940 L107.153,62.940 C105.652,62.940 104.398,61.723 104.398,60.221 L104.398,2.721 C104.398,1.220 105.652,0.003 107.153,0.003 L204.414,0.003 C205.915,0.003 207.242,1.220 207.242,2.721 L207.242,60.221 C207.242,61.723 205.915,62.940 204.414,62.940 ZM155.635,1.687 C155.279,1.687 154.990,1.976 154.990,2.332 C154.990,2.689 155.279,2.978 155.635,2.978 C155.992,2.978 156.281,2.689 156.281,2.332 C156.281,1.976 155.992,1.687 155.635,1.687 ZM202.561,4.657 L109.090,4.632 L109.090,58.236 L202.561,58.223 L202.561,4.657 ZM144.672,64.866 C144.672,65.617 145.415,66.457 146.166,66.457 L165.197,66.457 C165.948,66.457 166.581,65.629 166.581,64.878 L166.581,64.100 L220.919,64.097 L220.913,67.228 C220.913,68.729 219.713,69.567 218.211,69.567 L93.333,69.567 C91.832,69.567 90.699,68.967 90.699,67.465 L90.699,64.104 L144.672,64.101 L144.672,64.866 ZM72.076,69.625 L36.914,69.625 C34.758,69.625 32.995,67.861 32.995,65.706 L32.995,18.544 C32.995,16.389 34.758,14.625 36.914,14.625 L72.076,14.625 C74.231,14.625 75.995,16.389 75.995,18.544 L75.995,65.706 C75.995,67.861 74.231,69.625 72.076,69.625 ZM54.495,68.625 C55.323,68.625 55.995,67.953 55.995,67.125 C55.995,66.296 55.323,65.625 54.495,65.625 C53.666,65.625 52.995,66.296 52.995,67.125 C52.995,67.953 53.666,68.625 54.495,68.625 ZM54.495,16.625 C54.218,16.625 53.995,16.849 53.995,17.125 C53.995,17.401 54.218,17.625 54.495,17.625 C54.771,17.625 54.995,17.401 54.995,17.125 C54.995,16.849 54.771,16.625 54.495,16.625 ZM70.995,19.625 L37.995,19.625 L37.995,64.625 L70.995,64.625 L70.995,19.625 ZM13.855,69.625 L3.135,69.625 C1.408,69.625 -0.005,68.212 -0.005,66.485 L-0.005,39.765 C-0.005,38.038 1.408,36.625 3.135,36.625 L13.855,36.625 C15.582,36.625 16.995,38.038 16.995,39.765 L16.995,66.485 C16.995,68.212 15.582,69.625 13.855,69.625 ZM8.495,67.625 C9.323,67.625 9.995,66.953 9.995,66.125 C9.995,65.296 9.323,64.625 8.495,64.625 C7.666,64.625 6.995,65.296 6.995,66.125 C6.995,66.953 7.666,67.625 8.495,67.625 ZM4.495,39.625 C4.218,39.625 3.995,39.849 3.995,40.125 C3.995,40.401 4.218,40.625 4.495,40.625 C4.771,40.625 4.995,40.401 4.995,40.125 C4.995,39.849 4.771,39.625 4.495,39.625 ZM9.995,39.625 L6.995,39.625 C6.718,39.625 6.495,39.849 6.495,40.125 C6.495,40.401 6.718,40.625 6.995,40.625 L9.995,40.625 C10.271,40.625 10.495,40.401 10.495,40.125 C10.495,39.849 10.271,39.625 9.995,39.625 ZM15.995,42.625 L0.995,42.625 L0.995,63.625 L15.995,63.625 L15.995,42.625 Z" class="cls-1"/>
</svg>
